<svg width="512" height="512" xmlns="http://www.w3.org/2000/svg">

 <g>
  <title>background</title>
  <rect fill="none" id="canvas_background" height="402" width="582" y="-1" x="-1"/>
 </g>
 <g>
  <title>Layer 1</title>
  <path id="svg_1" d="m469.213,415.183l0,-215.338c0,-19.814 -16.075,-35.89 -35.89,-35.89l-35.89,0l0,35.89l0,35.89l0,179.448l-35.89,89.725l143.559,0l-35.889,-89.725z"/>
  <path id="svg_2" d="m110.316,235.734l0,-35.89l0,-35.89l-35.89,0c-19.82,0 -35.89,16.064 -35.89,35.89l0,215.338l-35.89,89.725l143.559,0l-35.89,-89.725l0,-179.448l0.001,0z"/>
  <path fill="#7f0000" id="svg_3" d="m378.893,146.01l0.596,0l0,-17.968c0,-69.349 -56.253,-125.59 -125.613,-125.59c-69.361,0 -125.614,56.241 -125.614,125.59l0,17.968l0.596,0l250.035,0zm-53.239,-53.834c9.919,0 17.944,8.05 17.944,17.945c0,9.907 -8.025,17.945 -17.944,17.945s-17.945,-8.038 -17.945,-17.945c0,-9.895 8.026,-17.945 17.945,-17.945m-71.779,-62.807c19.79,0 35.89,16.099 35.89,35.89c0,19.802 -16.1,35.89 -35.89,35.89c-19.838,0 -35.89,-16.087 -35.89,-35.89c0,-19.791 16.052,-35.89 35.89,-35.89"/>
  <path id="svg_4" d="m379.488,163.955l-251.227,0l0,251.228l35.89,35.89l179.448,0l35.89,-35.89l0,-251.228l-0.001,0zm-71.779,143.559l-107.669,0c-9.918,0 -17.945,-8.025 -17.945,-17.944s8.026,-17.945 17.945,-17.945l107.669,0c9.919,0 17.945,8.026 17.945,17.945s-8.026,17.944 -17.945,17.944m0,-71.78l-107.669,0c-9.918,0 -17.945,-8.038 -17.945,-17.945c0,-9.907 8.026,-17.945 17.945,-17.945l107.669,0c9.919,0 17.945,8.038 17.945,17.945c0,9.908 -8.026,17.945 -17.945,17.945"/>
 </g>
</svg>